# xmcd CD database file
#
# Track frame offsets:
#	150
#	28467
#	47378
#	65190
#	80002
#	102730
#	123518
#	147375
#	166734
#	181818
#
# Disc length: 2587 seconds
#
# Revision: 0
# Processed by: cddbd v1.5.2PL0 Copyright (c) Steve Scherf et al.
# Submitted via: CDex 1.51
#
DISCID=910a190a
DTITLE=Steve Mason and Dennis Bovell - Ghosts Outside
DYEAR=2011
DGENRE=Dub
TTITLE0=Lost And Dub
TTITLE1=Dub Position
TTITLE2=Letter Dub
TTITLE3=Yesterday Dub
TTITLE4=Dub Come Down
TTITLE5=Dub Outside
TTITLE6=Dub On My Heel
TTITLE7=Dub I Just A Man
TTITLE8=Understand My Dub
TTITLE9=Dub Her In
EXTD=YEAR: 2011
EXTT0=
EXTT1=
EXTT2=
EXTT3=
EXTT4=
EXTT5=
EXTT6=
EXTT7=
EXTT8=
EXTT9=
PLAYORDER=
